<svg aria-hidden="true" style="width:0;height:0;position:absolute;overflow:hidden" xmlns="http://www.w3.org/2000/svg"><defs><symbol id="icon-spacex" viewBox="0 0 48 32"><path d="M4.347 16.664H1.135v-.797h4.142c-.109-.338-.459-.652-1.075-.652H1.195c-.688 0-1.087.254-1.087.809v.592c0 .483.411.761 1.014.761H4.37v.845H-.001c.109.459.459.7 1.087.7h3.273c.688 0 1.026-.266 1.026-.833v-.592c0-.519-.398-.797-1.038-.833zm6.557-1.437H6.943v3.707h1.123v-1.425h2.922c.809 0 1.256-.278 1.256-.93v-.411c-.012-.604-.519-.942-1.34-.942zm.362 1.184c0 .266-.048.411-.483.411H8.066l.012-.966h2.657c.483 0 .543.145.543.398v.157zm4.71 1.074h-2.391l-.592.628h3.454l.592.821h1.328l-2.862-3.864-.676.833zm4.54-1.618h4.202c-.109-.435-.531-.652-1.135-.652h-3.14c-.543 0-1.063.217-1.063.809v2.077c0 .592.519.809 1.063.809h3.176c.725 0 .978-.205 1.099-.7h-4.202zm9.129 1.232v-.628h-3.393v2.463h5.011v-.7h-3.876v-1.135zm-3.272-1.872h5.06v.652h-5.06zm8.175 0h-1.763l2.077 1.522c.302-.205.652-.423.966-.604zm2.56 1.896c-.302.205-.604.435-.894.652l1.57 1.147h1.775z"/><path d="M48 13.066c-9.66.555-14.129 4.685-15.131 5.663l-.205.193h1.787c4.83-4.842 11.774-5.7 13.549-5.857z"/></symbol><symbol id="icon-home" viewBox="0 0 32 32"><path d="M32 18.451 16 6.031 0 18.451v-5.064L16 .967l16 12.42zM28 18v12h-8v-8h-8v8H4V18l12-9z"/></symbol><symbol id="icon-spacex-1" viewBox="0 0 260 32"><path d="M60.549 11.809H38.617l-.783.627V31.94h6.031v-7.363l.548-.548h16.136c4.073 0 5.953-1.096 5.953-3.916v-4.465c0-2.742-1.88-3.838-5.953-3.838zm0 7.207c0 1.331-.862 1.567-2.82 1.567H44.491l-.627-.548v-4.151l.548-.548h13.316c1.88 0 2.82.235 2.82 1.566v2.115zm17.075-3.525 5.248 7.676-.313.705H70.966l-2.977 3.682h17.232l1.253.705 2.663 3.682h6.971L80.834 11.575zm69.165 12.532V22.54l.627-.548h11.671v-3.447h-18.486v13.394h27.259v-3.447h-20.366zm-6.188-16.214h27.494v3.76h-27.494zm-30.626 3.603h22.167c-.313-2.82-2.115-3.603-6.501-3.603H109.74c-5.013 0-6.58.94-6.58 4.778V27.24c0 3.76 1.567 4.778 6.58 4.778h15.901c4.465 0 6.188-.862 6.345-3.76h-22.011l-.627-.627V15.882zm-87.024 4.23H6.894l-.47-.548v-3.447l.47-.392h21.697l.313-.705c-.705-1.88-2.663-2.82-6.188-2.82H7.598c-5.013 0-6.58.94-6.58 4.778v2.272c0 3.76 1.567 4.778 6.58 4.778h16.058l.47.47v3.603l-.392.548H.548S0 28.492 0 28.571c.392 2.663 2.193 3.368 6.501 3.368H22.95c5.013 0 6.658-.94 6.658-4.778v-2.742c0-3.76-1.645-4.778-6.658-4.778zm162.455-7.911h-9.086l-.47.94 10.026 7.363c1.88-1.097 3.995-2.193 6.188-3.29zm8.146 13.786 8.851 6.423h9.086l.392-.862-13.159-9.634c-1.723 1.331-3.525 2.663-5.17 4.073z"/><path d="M184.074 31.94h-8.225l-.705-1.097c5.562-5.405 30.47-28.433 84.596-30.862 0 0-45.353 1.567-75.666 31.958z"/></symbol></defs></svg>